<?xml version="1.0" encoding="UTF-8"?>
<svg width="123px" height="184px" viewBox="0 0 123 184" version="1.1" xmlns="http://www.w3.org/2000/svg" xmlns:xlink="http://www.w3.org/1999/xlink">
    <title>Fill 1</title>
    <g id="Page-1" stroke="none" stroke-width="1" fill="none" fill-rule="evenodd">
        <g id="Artboard" transform="translate(-178.000000, -147.000000)" fill="#FFFFFF">
            <path d="M296,273.35 C296,302.38 270.65,326 239.5,326 C208.35,326 183,302.38 183,273.35 L183,209.97 C183,204.82 187.17,200.64 192.3,200.64 C197.43,200.64 201.6,204.82 201.6,209.97 L201.6,248.28 C201.6,249.66 202.72,250.78 204.1,250.78 C205.48,250.78 206.6,249.66 206.6,248.28 L206.6,179.58 C206.6,174.88 211.24,171.05 216.93,171.05 C222.63,171.05 227.27,174.88 227.27,179.58 L227.27,247.12 C227.27,248.51 228.39,249.62 229.77,249.62 C231.15,249.62 232.27,248.51 232.27,247.12 L232.27,160.53 C232.27,155.83 236.9,152 242.6,152 C248.3,152 252.93,155.83 252.93,160.53 L252.93,237.25 L245.7,237.25 C241.84,237.25 238.7,240.39 238.7,244.25 L238.7,253.29 C238.7,262.13 245.89,269.33 254.74,269.33 L256.39,269.33 C249.2,274.15 244.51,282.06 244.51,290.97 C244.51,292.35 245.63,293.47 247.01,293.47 C248.39,293.47 249.51,292.35 249.51,290.97 C249.51,279.07 259.94,269.4 272.75,269.4 C272.95,269.4 273.15,269.38 273.34,269.33 L280.47,269.33 C281.85,269.33 282.97,268.21 282.97,266.83 C282.97,265.45 281.85,264.33 280.47,264.33 L254.74,264.33 C248.65,264.33 243.7,259.37 243.7,253.29 L243.7,244.25 C243.7,243.15 244.6,242.25 245.7,242.25 L253.55,242.25 C255.41,248.61 261.3,253.28 268.27,253.28 C274.72,253.28 280.26,249.27 282.51,243.61 L286,243.61 C291.51,243.61 296,248.11 296,253.65 L296,273.35 Z M257.93,212.47 C257.93,206.77 262.57,202.14 268.27,202.14 C273.96,202.14 278.6,206.77 278.6,212.47 L278.6,237.95 C278.6,243.65 273.96,248.28 268.27,248.28 C262.57,248.28 257.93,243.65 257.93,237.95 L257.93,212.47 Z M286,238.61 L283.58,238.61 C283.6,238.39 283.6,238.17 283.6,237.95 L283.6,212.47 C283.6,204.02 276.72,197.14 268.27,197.14 C264.29,197.14 260.66,198.66 257.93,201.16 L257.93,160.53 C257.93,153.07 251.06,147 242.6,147 C234.14,147 227.27,153.07 227.27,160.53 L227.27,169.6 C224.54,167.4 220.91,166.05 216.93,166.05 C208.48,166.05 201.6,172.12 201.6,179.58 L201.6,199.09 C199.09,196.94 195.85,195.64 192.3,195.64 C184.41,195.64 178,202.06 178,209.97 L178,273.35 C178,305.14 205.59,331 239.5,331 C273.41,331 301,305.14 301,273.35 L301,253.65 C301,245.36 294.27,238.61 286,238.61 L286,238.61 Z" id="Fill-1"></path>
        </g>
    </g>
</svg>